<svg width="14" height="14" viewBox="0 0 14 14" fill="none" xmlns="http://www.w3.org/2000/svg">
<path d="M5.35421 7.03999L0.581242 11.813C0.288349 12.1059 0.288349 12.5807 0.581243 12.8736C0.874136 13.1665 1.34901 13.1665 1.6419 12.8736L6.9452 7.57032C7.2381 7.27743 7.2381 6.80256 6.9452 6.50966L1.6419 1.20636C1.34901 0.913471 0.874135 0.913471 0.581243 1.20636C0.288349 1.49926 0.288349 1.97413 0.581242 2.26702L5.35421 7.03999Z" fill="#636C76"/>
<path d="M7.74989 10.5C7.33567 10.5 6.99989 10.8358 6.99989 11.25C6.99989 11.6642 7.33567 12 7.74989 12H13.2499C13.6641 12 13.9999 11.6642 13.9999 11.25C13.9999 10.8358 13.6641 10.5 13.2499 10.5H7.74989Z" fill="#636C76"/>
</svg>
