<svg width="16" height="14" viewBox="0 0 16 14" fill="none" xmlns="http://www.w3.org/2000/svg">
<path fill-rule="evenodd" clip-rule="evenodd" d="M1.5 1.75C1.5 1.6837 1.52634 1.62011 1.57322 1.57322C1.62011 1.52634 1.6837 1.5 1.75 1.5H10.25C10.3163 1.5 10.3799 1.52634 10.4268 1.57322C10.4737 1.62011 10.5 1.6837 10.5 1.75V7.25C10.5 7.3163 10.4737 7.37989 10.4268 7.42678C10.3799 7.47366 10.3163 7.5 10.25 7.5H6.75C6.55115 7.50017 6.36052 7.57931 6.22 7.72L3.5 10.44V8.25C3.5 8.05109 3.42098 7.86032 3.28033 7.71967C3.13968 7.57902 2.94891 7.5 2.75 7.5H1.75C1.6837 7.5 1.62011 7.47366 1.57322 7.42678C1.52634 7.37989 1.5 7.3163 1.5 7.25V1.75ZM1.75 0C1.28587 0 0.840752 0.18437 0.512563 0.51256C0.184374 0.84075 0 1.28587 0 1.75V7.25C0 8.216 0.784 9 1.75 9H2V10.543C2.0001 10.8311 2.08561 11.1127 2.24571 11.3522C2.40581 11.5917 2.63333 11.7784 2.8995 11.8886C3.16567 11.9988 3.45854 12.0277 3.74111 11.9715C4.02367 11.9153 4.28324 11.7767 4.487 11.573L7.061 9H10.25C10.7141 9 11.1592 8.81563 11.4874 8.48744C11.8156 8.15925 12 7.71413 12 7.25V1.75C12 1.28587 11.8156 0.84075 11.4874 0.51256C11.1592 0.18437 10.7141 0 10.25 0H1.75ZM14.5 3.75C14.5 3.6837 14.4737 3.62011 14.4268 3.57322C14.3799 3.52634 14.3163 3.5 14.25 3.5H13.75C13.5511 3.5 13.3603 3.42098 13.2197 3.28033C13.079 3.13968 13 2.94891 13 2.75C13 2.55109 13.079 2.36032 13.2197 2.21967C13.3603 2.07902 13.5511 2 13.75 2H14.25C15.216 2 16 2.784 16 3.75V9.25C16 9.7141 15.8156 10.1592 15.4874 10.4874C15.1592 10.8156 14.7141 11 14.25 11H14V12.543C13.9999 12.8311 13.9144 13.1127 13.7543 13.3522C13.5942 13.5917 13.3667 13.7784 13.1005 13.8886C12.8343 13.9988 12.5415 14.0277 12.2589 13.9715C11.9763 13.9153 11.7168 13.7767 11.513 13.573L9.22 11.28C9.14631 11.2113 9.08721 11.1285 9.04622 11.0365C9.00523 10.9445 8.98318 10.8452 8.98141 10.7445C8.97963 10.6438 8.99816 10.5438 9.03588 10.4504C9.0736 10.357 9.12974 10.2722 9.20096 10.201C9.27218 10.1297 9.35701 10.0736 9.4504 10.0359C9.54379 9.9982 9.64382 9.9796 9.74452 9.9814C9.84523 9.9832 9.94454 10.0052 10.0365 10.0462C10.1285 10.0872 10.2113 10.1463 10.28 10.22L12.5 12.44V10.25C12.5 10.0511 12.579 9.8603 12.7197 9.7197C12.8603 9.579 13.0511 9.5 13.25 9.5H14.25C14.3163 9.5 14.3799 9.4737 14.4268 9.4268C14.4737 9.3799 14.5 9.3163 14.5 9.25V3.75Z" fill="#636C76"/>
</svg>
